<svg width="232" height="104" viewBox="0 0 232 104" fill="none" xmlns="http://www.w3.org/2000/svg">
<path d="M61.2232 58.3703C62.5453 60.2033 64.2444 61.6364 66.5889 61.6364C73.5853 61.6364 86.0916 60.4327 90.2679 67.9061C93.295 73.323 79.6292 70.8525 77.6702 70.6764C72.4804 70.2099 68.4956 73.1983 63.5561 74.2925C57.6511 75.6005 50.3589 73.9717 44.7178 72.2512C41.4767 71.2626 39.6267 69.2026 37.1067 67.1188C30.5296 61.68 24.2854 59.5368 15.8481 59.5368C12.4466 59.5368 6.65492 60.5463 3.68775 58.3703C1.2276 56.5662 2.0581 51.814 2.49093 49.3372L2.49214 49.3303C3.24981 44.9948 4.8443 39.9735 8.52855 37.2283C10.5618 35.7134 13.0499 35.9932 15.2648 34.9246C19.8681 32.7037 22.7722 28.2177 27.6876 26.4095C31.7154 24.9277 36.1116 24.8931 40.3436 24.8931C45.901 24.8931 48.617 31.4033 54.0203 31.6877C57.3648 31.8637 60.2591 31.434 63.4394 32.65C65.5868 33.471 69.7102 35.0908 70.1466 37.4908C71.297 43.8181 66.131 48.9064 61.5731 52.1881C58.6015 54.3277 59.0288 55.3282 61.2232 58.3703Z" fill="#74CBC5" fill-opacity="0.5" stroke="black" stroke-width="3" stroke-linecap="round"/>
<path d="M158.648 1.8054C161.386 1.64434 164.615 5.12241 166.098 6.60504C165.258 5.76452 167.138 5.95542 167.583 7.33212C168.279 7.59031 168.912 7.92266 168.964 8.8974C168.984 9.29276 168.96 9.67935 168.905 10.0599C169.511 10.531 170.249 10.8316 170.898 10.8316C172.741 10.8316 173.247 12.121 175.088 12.121H179.924C183.165 12.121 186.488 10.7661 189.846 11.5121C191.503 11.8805 192.475 14.2726 193.606 15.488C194.993 16.9768 197.65 19.8056 198.621 21.5054C199.934 23.8028 202.432 26.687 204.71 27.9527C207.516 29.5114 209.402 31.9022 212.411 33.3612C213.993 34.1283 217.543 36.1568 218.608 37.6952C220.71 40.732 225.592 43.1143 226.953 46.2916C227.884 48.464 227.634 50.6445 227.634 52.9896C227.634 57.7649 230.213 62.1884 230.213 66.9229C230.213 74.4149 223.804 80.6155 218.106 85.0469C209.775 91.5264 200.741 101.093 189.631 101.093H180.963C177.069 101.093 175.338 102.497 171.399 100.95C167.193 99.2977 163.587 94.0714 160.26 91.136C157.712 88.888 155.436 86.3153 152.845 84.1156C149.695 81.441 146.68 78.7369 143.461 76.0924C143.016 75.7265 142.605 75.3422 142.218 74.9464C140.967 74.9522 139.778 74.7744 138.697 74.3014C136.361 73.2795 134.47 71.1689 132.142 70.1107C126.015 67.3254 124.738 58.6847 126.089 52.7389C126.732 49.9106 126.072 46.8011 127.701 44.2142C128.855 42.3817 128.99 41.3439 128.99 39.1996C128.99 38.8006 129.051 38.5974 129.153 38.5413C129.035 37.7441 128.99 36.8445 128.99 35.8327C128.99 31.2399 132.64 30.6787 135.581 27.7378C138.278 25.0411 143.201 23.425 146.415 20.6708C150.596 17.0869 150.857 13.5187 153.168 8.8974C154.028 7.17621 156.624 1.92446 158.648 1.8054Z" fill="white" fill-opacity="0.5"/>
<path d="M166.098 6.60504C164.615 5.12241 161.386 1.64434 158.648 1.8054C156.624 1.92446 154.028 7.17621 153.168 8.8974C150.857 13.5187 150.596 17.0869 146.415 20.6708C143.201 23.425 138.278 25.0411 135.581 27.7378C132.64 30.6787 128.99 31.2399 128.99 35.8327C128.99 40.7044 130.015 42.9739 135.438 43.7485C139.029 44.2615 142.207 43.4489 145.395 41.4203C151.573 37.489 155.544 31.7429 161.227 27.0931C164.832 24.1434 167.153 19.1889 167.71 14.7358M166.098 6.60504C166.953 7.46008 168.873 7.16997 168.964 8.8974C169.072 10.9517 167.956 12.7694 167.71 14.7358M166.098 6.60504C165.148 5.65512 167.674 6.02259 167.674 7.93031C167.674 9.42669 169.496 10.8316 170.898 10.8316C172.741 10.8316 173.247 12.121 175.088 12.121C176.7 12.121 178.312 12.121 179.924 12.121C183.165 12.121 186.488 10.7661 189.846 11.5121C191.503 11.8805 192.475 14.2726 193.606 15.488C194.993 16.9768 197.65 19.8056 198.621 21.5054C199.934 23.8028 202.432 26.687 204.71 27.9527C207.516 29.5114 209.402 31.9022 212.411 33.3612C213.993 34.1283 217.543 36.1568 218.608 37.6952C220.71 40.732 225.592 43.1143 226.953 46.2916C227.884 48.464 227.634 50.6445 227.634 52.9896C227.634 57.7649 230.213 62.1884 230.213 66.9229C230.213 74.4149 223.804 80.6155 218.106 85.0469C209.775 91.5264 200.741 101.093 189.631 101.093C186.741 101.093 183.852 101.093 180.963 101.093C177.069 101.093 175.338 102.497 171.399 100.95C167.193 99.2977 163.587 94.0714 160.26 91.136C157.712 88.888 155.436 86.3153 152.845 84.1156C149.695 81.441 146.68 78.7369 143.461 76.0924C140.995 74.0665 139.589 71.4732 137.336 69.5018C134.452 66.9783 128.594 65.2529 130.602 60.8338C132.444 56.7823 132.859 52.8808 132.859 48.2258C132.859 46.3475 131.938 44.566 131.534 42.7456C131.322 41.7947 128.99 36.7221 128.99 39.1996C128.99 41.3439 128.855 42.3817 127.701 44.2142C126.072 46.8011 126.732 49.9106 126.089 52.7389C124.738 58.6847 126.015 67.3254 132.142 70.1107C134.47 71.1689 136.361 73.2795 138.697 74.3014C143.28 76.3062 149.795 73.0084 154.787 72.8974C163.558 69.5018 168.673 62.4906 171.041 55.676C175.972 41.4854 178.309 25.8536 167.71 14.7358" stroke="black" stroke-width="3" stroke-linecap="round"/>
<path d="M167.674 5.67377C167.674 12.3791 164.999 16.3721 160.224 21.1472C158.402 22.9689 156.786 24.6875 154.787 26.2523C152.076 28.3743 150.306 31.3047 147.616 33.3971C145.179 35.2925 142.027 35.7189 139.449 37.2654C137.888 38.202 136.373 39.1996 134.471 39.1996C132.212 39.1996 130.698 39.3918 129.635 37.2654" stroke="black" stroke-width="3" stroke-linecap="round"/>
<path d="M157.392 47.1974C158.654 49.4701 160.567 51.5246 162.462 53.2824C164.02 54.7269 164.804 56.9714 166.344 58.528C168.945 61.1568 171.896 63.3979 174.387 66.1517C176.598 68.5949 178.643 71.0482 181.067 73.2858C182.385 74.5022 183.54 76.8293 185.578 76.2234C187.893 75.5352 190.004 72.9168 191.838 71.4498C193.942 69.7663 194.147 67.0547 195.02 64.6829C195.878 62.3556 195.971 61.6932 193.971 59.8569C191.914 57.9672 188.616 56.4671 186.068 55.4156C183.245 54.2512 181.352 54.7188 179.388 57.0243C177.942 58.7224 176.977 61.1343 174.895 62.1301C174.05 62.5339 173.467 63.2254 172.814 63.8786" stroke="black" stroke-width="3" stroke-linecap="round"/>
<path d="M194.531 25.1657C194.238 24.2863 192.504 24.4682 191.873 24.746C189.127 25.9543 189.053 31.6535 188.568 34.1183C187.908 37.4733 187.35 41.6386 188.761 44.8544C190.294 48.3515 193.029 50.621 196.122 52.7054C199.048 54.677 202.19 56.0787 205.442 57.409C207.015 58.0524 208.437 58.2133 210.128 58.2133C211.376 58.2133 213.373 58.5941 214.534 58.0035C216.359 57.0755 218.514 52.8122 218.941 50.8344C219.477 48.3507 219.497 46.2276 218.136 44.0501" stroke="black" stroke-width="3" stroke-linecap="round"/>
<path d="M158.336 46.5679C159.786 46.2572 161.122 45.2903 162.497 44.7494C165.001 43.765 167.319 42.9278 169.526 41.3398C171.617 39.836 172.561 38.5901 173.758 36.4963" stroke="black" stroke-width="3" stroke-linecap="round"/>
<path d="M99.7744 33.8165C102.831 29.0924 102.959 31.0754 109.338 27.5468C110.933 26.2523 116.126 27.0862 117.738 27.5468C118.175 27.6718 118.697 28.7996 119.575 29.0924C120.197 29.2998 128.474 32.2418 121.062 31.0753C120.298 31.9243 117.405 31.113 116.163 32.2418C115.133 33.1782 113.436 32.6146 112.168 33.0583C109.42 34.0201 108.184 34.6246 106.19 36.7326C104.414 38.6101 102.714 42.2983 99.6578 40.1154C97.6061 38.6499 98.5825 35.6586 99.7744 33.8165Z" fill="#74CBC5" fill-opacity="0.5" stroke="black" stroke-width="3" stroke-linecap="round"/>
</svg>
