<svg width="646" height="162" viewBox="0 0 646 162" fill="none" xmlns="http://www.w3.org/2000/svg">
<path d="M9.94983 73.7705C10.6913 75.9809 13.4762 77.5686 13.4762 81C13.4762 84.4314 15.2971 93.5298 21.8281 95.6066C28.9852 97.8823 27.9983 107.542 33.5209 111.246C37.1673 113.692 38.1643 115.854 41.6872 118.254C49.005 123.24 57.849 129.41 62.8455 135.148C66.0239 138.797 74.1484 140.691 76.951 144.59C79.0448 147.503 89.1919 147.764 92.9125 150.049C100.249 154.556 123.032 158.324 135.415 159.418C141.766 159.979 143.778 162 150.448 162H178.659C214.21 162 254.577 151.743 278.882 142.082C293.696 136.194 310.009 131.632 325.839 126.738C337.823 123.033 363.895 118.506 370.939 113.607C376.319 109.865 410.272 107.763 419.566 107.557C446.013 106.973 471.787 102.822 497.889 102.246C523.306 101.685 559.633 97.2614 581.223 92.4344C590.802 90.2927 602.53 91.6842 611.475 90C616.603 89.0345 618.039 85.6609 623.354 85.0574C650.194 82.0093 649.09 56.2194 640.8 48.3934C630.056 38.2509 620.211 28.554 599.968 20.5082C593.509 17.9408 590.946 15.6066 582.893 13.2787C573.71 10.6242 563.497 8.52887 553.197 6.63934C534.291 3.17096 514.755 0 494.548 0H449.448C436.689 0 424.714 1.32787 411.771 1.32787C405.294 1.32787 391.827 0.48313 387.643 3.39344C384.18 5.80216 377.629 5.04332 372.61 6.63934C363.398 9.56857 352.137 11.1896 341.986 13.5738C326.663 17.1727 300.022 19.4493 287.42 23.9016C265.421 31.6742 235.027 32.2135 206.87 30.6148C195.829 29.9878 186.484 29.4454 175.689 27.8852C170.084 27.0751 158.037 26.9446 154.531 25.2295C144.311 20.23 105.156 22.3582 91.0565 22.5738C79.0491 22.7573 61.9644 29.5397 51.7095 31.8689C37.8583 35.0149 13.3874 37.2597 6.79465 43.1557C2.82653 46.7045 0.113091 46.3294 0.113091 51.0492C0.113091 54.3889 -0.141364 57.7444 0.113091 61.082C0.455101 65.568 8.52262 69.5159 9.94983 73.7705Z" fill="#F6A48E" fill-opacity="0.75"/>
</svg>
